<svg xmlns="http://www.w3.org/2000/svg" viewBox="0 0 20 20"><defs><style>.cls-1{fill:#c3ccdf;}</style></defs><g id="Camada_2" data-name="Camada 2"><g id="svg5"><path id="icon_settings" class="cls-1" d="M9.93,0A9.55,9.55,0,0,0,8.87.06a.93.93,0,0,0-.82,1A1.95,1.95,0,0,1,4.92,2.56c-.44-.33-1-.53-1.4-.17A9.71,9.71,0,0,0,2.18,3.77.91.91,0,0,0,2.26,5a2,2,0,0,1,0,2.76,2,2,0,0,1-1.12.55C.6,8.4.08,8.65,0,9.2c0,.27,0,.53,0,.8a10.69,10.69,0,0,0,.06,1.13A.92.92,0,0,0,1,12a1.95,1.95,0,0,1,1.55,3.13c-.33.44-.53,1-.17,1.4a9.71,9.71,0,0,0,1.38,1.34A.91.91,0,0,0,5,17.74a2,2,0,0,1,2.76,0,2,2,0,0,1,.55,1.12c.07.54.32,1.06.87,1.11.27,0,.53,0,.8,0a8.57,8.57,0,0,0,1.13-.07A.91.91,0,0,0,12,19a1.95,1.95,0,0,1,3.13-1.55c.44.33,1,.53,1.4.17a10.27,10.27,0,0,0,1.34-1.38A.91.91,0,0,0,17.74,15a2,2,0,0,1,1.34-3.33A.89.89,0,0,0,20,10.8c0-.27,0-.53,0-.8a10.69,10.69,0,0,0-.06-1.13.92.92,0,0,0-1-.82,1.95,1.95,0,0,1-1.55-3.13c.33-.44.53-1,.17-1.4a9.2,9.2,0,0,0-1.38-1.34A.91.91,0,0,0,15,2.26a2,2,0,0,1-2.76,0,2,2,0,0,1-.55-1.12C11.6.6,11.35.07,10.8,0c-.27,0-.53,0-.8,0ZM10,6.73A3.27,3.27,0,1,1,6.73,10,3.26,3.26,0,0,1,10,6.73Z"/></g></g></svg>