<svg xmlns="http://www.w3.org/2000/svg" viewBox="0 0 18 17.56"><defs><style>.cls-1{fill:#c3ccdf;}</style></defs><g id="Camada_2" data-name="Camada 2"><g id="svg5"><g id="icon_widgets"><g id="g6"><g id="g4"><path id="path2" class="cls-1" d="M18,10.1a.93.93,0,0,0-.93-.92H14.35a4.14,4.14,0,0,0-4.14,4.12,2.38,2.38,0,0,1-2,2.39,2.33,2.33,0,0,1-2.62-2.3V11.32A4.64,4.64,0,0,0,9.28,6.77V4.42a.6.6,0,0,0-.6-.6H7.53V.91A.9.9,0,0,0,6.75,0a.88.88,0,0,0-1,.87V3.82H3.5V.91A.9.9,0,0,0,2.71,0a.87.87,0,0,0-.95.87V3.82H.6a.6.6,0,0,0-.6.6V6.77a4.64,4.64,0,0,0,3.71,4.55v2a4.25,4.25,0,0,0,4,4.28,4.19,4.19,0,0,0,4.34-4.18v0A2.32,2.32,0,0,1,14.38,11h2.69A.93.93,0,0,0,18,10.1Z"/></g></g></g></g></g></svg>