<svg xmlns="http://www.w3.org/2000/svg" viewBox="0 0 16 16"><defs><style>.cls-1{fill:#c3ccdf;}</style></defs><g id="Camada_2" data-name="Camada 2"><g id="svg5"><path id="icon_home" class="cls-1" d="M8.54.3a1.27,1.27,0,0,0-1.68,0L.72,6.17A2.67,2.67,0,0,0,0,7.86V15a1,1,0,0,0,1,1H5.29a1,1,0,0,0,1-1h0V11.15a.5.5,0,0,1,.5-.5H9.21a.5.5,0,0,1,.5.5V15a1,1,0,0,0,1,1H15a1,1,0,0,0,1-1h0V7.83a2.55,2.55,0,0,0-.75-1.66ZM7.72,1.45h0ZM13.64,14.6H12.12a1,1,0,0,1-1-1V10.3A1.12,1.12,0,0,0,10,9.21H5.89A1.12,1.12,0,0,0,4.75,10.3v3.3a1,1,0,0,1-1,1H2.45a1,1,0,0,1-1-1h0V8.66A2.41,2.41,0,0,1,2.16,7l5.2-5.15.36-.35L13.89,7a2.25,2.25,0,0,1,.75,1.67V13.6a1,1,0,0,1-1,1Z"/></g></g></svg>