<?xml version="1.0" encoding="utf-8"?>
<!-- Generator: Adobe Illustrator 25.0.0, SVG Export Plug-In . SVG Version: 6.00 Build 0)  -->
<svg version="1.1"
	 id="svg5" xmlns:inkscape="http://www.inkscape.org/namespaces/inkscape" xmlns:sodipodi="http://sodipodi.sourceforge.net/DTD/sodipodi-0.dtd" xmlns:svg="http://www.w3.org/2000/svg"
	 xmlns="http://www.w3.org/2000/svg" xmlns:xlink="http://www.w3.org/1999/xlink" x="0px" y="0px" viewBox="0 0 1200 720"
	 style="enable-background:new 0 0 1200 720;" xml:space="preserve">
<style type="text/css">
	.st0{fill:#282A36;}
	.st1{fill:#44475A;}
	.st2{fill:#21232D;}
	.st3{fill:#C3CCDF;}
	.st4{fill:#6272A4;}
	.st5{font-family:'SegoeUI';}
	.st6{font-size:12px;}
	.st7{font-family:'SegoeUI-Bold';}
	.st8{fill:#F8F8F2;}
	.st9{font-size:21.3333px;}
	.st10{fill:#4F5368;}
	.st11{fill:#3C3F50;}
</style>
<sodipodi:namedview  bordercolor="#eeeeee" borderopacity="1" id="namedview7" inkscape:current-layer="layer1" inkscape:cx="609.5" inkscape:cy="372.5" inkscape:document-units="px" inkscape:pagecheckerboard="0" inkscape:pageopacity="0" inkscape:pageshadow="0" inkscape:snap-object-midpoints="true" inkscape:window-height="1009" inkscape:window-maximized="1" inkscape:window-width="1920" inkscape:window-x="1912" inkscape:window-y="-8" inkscape:zoom="1" pagecolor="#505050" showgrid="false" units="px">
	</sodipodi:namedview>
<defs>
	
		<inkscape:path-effect  apply_no_radius="true" apply_with_radius="true" chamfer_steps="1" effect="fillet_chamfer" flexible="false" hide_knots="false" id="path-effect1635" is_visible="true" lpeversion="1" method="auto" mode="F" only_selected="true" radius="1" satellites_param="F,0,0,1,0,0,0,1 @ F,0,1,1,0,0.26458333,0,1 @ F,0,0,1,0,0,0,1 @ F,0,0,1,0,0,0,1 @ F,0,1,1,0,0.26458333,0,1 @ F,0,1,1,0,0.26458333,0,1 @ F,0,0,1,0,0,0,1 @ F,0,0,1,0,0,0,1 @ F,0,1,1,0,0.26458333,0,1 @ F,0,0,1,0,0,0,1 @ F,0,1,1,0,0.26458333,0,1 @ F,0,0,1,0,0,0,1 @ F,0,0,1,0,0,0,1 @ F,0,1,1,0,0.26458333,0,1 @ F,0,1,1,0,0.26458333,0,1 @ F,0,0,1,0,0,0,1 @ F,0,0,1,0,0,0,1 @ F,0,0,1,0,0,0,1 @ F,0,1,1,0,0.26458333,0,1 @ F,0,0,1,0,0,0,1 @ F,0,1,1,0,0.26458333,0,1 @ F,0,0,1,0,0,0,1 @ F,0,0,1,0,0,0,1 @ F,0,1,1,0,0.26458333,0,1 @ F,0,1,1,0,0.26458333,0,1 @ F,0,0,1,0,0,0,1 @ F,0,0,1,0,0,0,1 @ F,0,0,1,0,0,0,1 @ F,0,1,1,0,0.26458333,0,1 @ F,0,0,1,0,0,0,1 @ F,0,1,1,0,0.26458333,0,1 @ F,0,0,1,0,0,0,1 @ F,0,0,1,0,0,0,1 @ F,0,1,1,0,0.26458333,0,1 @ F,0,1,1,0,0.26458333,0,1 @ F,0,0,1,0,0,0,1 @ F,0,0,1,0,0,0,1 @ F,0,1,1,0,0.26458333,0,1 @ F,0,0,1,0,0,0,1 @ F,0,0,1,0,0,0,1 | F,0,0,1,0,0,0,1 @ F,0,0,1,0,0,0,1 @ F,0,0,1,0,0,0,1 @ F,0,0,1,0,0,0,1" unit="px" use_knot_distance="true">
		</inkscape:path-effect>
</defs>
<g id="layer1" inkscape:groupmode="layer" inkscape:label="Layer 1">
	<rect id="rect31" x="0" y="0" sodipodi:insensitive="true" class="st0" width="1200" height="720">
	</rect>
	<rect id="rect964" x="0" y="0" class="st1" width="50" height="720"/>
	<rect id="rect1408" x="50" y="0" class="st2" width="1150" height="30"/>
	<rect id="rect1408-9" x="50" y="690" class="st2" width="1150" height="30"/>
	
		<path id="rect4" inkscape:export-filename="E:\ESTUDOS\TUTORIAIS\NEW\Qt Widgets Projects\PyOneDark\Layout\Exports\Preview_01.png" inkscape:export-xdpi="288.13419" inkscape:export-ydpi="288.13419" class="st3" d="
		M16,14v2h18v-2L16,14z M16,22v2h18v-2H16z M16,30v2h18v-2H16z"/>
	<path id="path872" class="st3" d="M25.9,652c-0.4,0-0.7,0-1.1,0.1c-0.5,0.1-0.8,0.5-0.8,0.9c0,1.1-0.9,1.9-1.9,1.9
		c-0.4,0-0.8-0.1-1.2-0.4c-0.4-0.3-1-0.5-1.4-0.2c-0.5,0.4-0.9,0.9-1.3,1.4c-0.3,0.4-0.2,0.9,0.1,1.2c0.8,0.8,0.8,2,0,2.8
		c-0.3,0.3-0.7,0.5-1.1,0.6c-0.5,0.1-1.1,0.3-1.1,0.9c0,0.3,0,0.5,0,0.8c0,0.4,0,0.8,0.1,1.1c0.1,0.5,0.5,0.8,0.9,0.8
		c1.1,0,1.9,0.9,1.9,1.9c0,0.4-0.1,0.8-0.4,1.2c-0.3,0.4-0.5,1-0.2,1.4c0.4,0.5,0.9,0.9,1.4,1.3c0.4,0.3,0.9,0.2,1.2-0.1
		c0.4-0.4,0.8-0.6,1.3-0.6c0.5,0,1,0.2,1.4,0.6c0.3,0.3,0.5,0.7,0.6,1.1c0.1,0.5,0.3,1.1,0.9,1.1c0.3,0,0.5,0,0.8,0
		c0.4,0,0.8,0,1.1-0.1c0.5-0.1,0.8-0.5,0.8-0.9c0-1.1,0.9-1.9,1.9-1.9c0.4,0,0.8,0.1,1.2,0.4c0.4,0.3,1,0.5,1.4,0.2
		c0.5-0.4,0.9-0.9,1.3-1.4c0.3-0.4,0.2-0.9-0.1-1.2c-0.8-0.8-0.8-2,0-2.8c0.4-0.4,0.8-0.6,1.3-0.6c0.4,0,0.8-0.3,0.9-0.9
		c0-0.3,0-0.5,0-0.8c0-0.4,0-0.8-0.1-1.1c-0.1-0.5-0.5-0.8-0.9-0.8c-1.1,0-1.9-0.9-1.9-1.9c0-0.4,0.1-0.8,0.4-1.2
		c0.3-0.4,0.5-1,0.2-1.4c-0.4-0.5-0.9-0.9-1.4-1.3c-0.4-0.3-0.9-0.2-1.2,0.1c-0.8,0.8-2,0.8-2.8,0c-0.3-0.3-0.5-0.7-0.6-1.1
		c-0.1-0.5-0.3-1.1-0.9-1.1C26.5,652,26.3,652,25.9,652C26,652,26,652,25.9,652L25.9,652z M26,658.7c1.8,0,3.3,1.5,3.3,3.3
		c0,1.8-1.5,3.3-3.3,3.3c-1.8,0-3.3-1.5-3.3-3.3C22.7,660.2,24.2,658.7,26,658.7z"/>
	<text transform="matrix(1 0 0 1 62 708.999)" class="st4 st5 st6">Criado por: Tião Nazário</text>
	<text transform="matrix(1 0 0 1 1147.4648 709.0615)" class="st4 st5 st6">© 2021</text>
	<text transform="matrix(1 0 0 1 61.8223 19.0283)" class="st4 st5 st6">Essa é minha primeira aplicação com Qt Widgets</text>
	<text transform="matrix(1 0 0 1 1090.8223 19.0283)" class="st4 st7 st6">| PÁGINA INICIAL</text>
	<text transform="matrix(1 0 0 1 544.8242 367.4638)" class="st8 st7 st9">PÁGINA INICIAL</text>
	<rect id="rect29803" x="0" y="46" class="st10" width="50" height="40"/>
	
		<path id="path924" inkscape:export-filename="E:\ESTUDOS\TUTORIAIS\NEW\Qt Widgets Projects\PyOneDark\Layout\Exports\Preview_01.png" inkscape:export-xdpi="288.13419" inkscape:export-ydpi="288.13419" sodipodi:nodetypes="cccccccccccscsccssssccccccc" class="st3" d="
		M25.5,58.3c-0.5-0.4-1.2-0.4-1.7,0c-2,1.9-4.1,3.9-6.1,5.8c-0.4,0.4-0.7,1.1-0.7,1.7V73c0,0.6,0.4,1,1,1c0,0,0,0,0,0h4.3
		c0.6,0,1-0.4,1-1c0,0,0,0,0,0v-3.9c0-0.3,0.2-0.5,0.5-0.5h2.4c0.3,0,0.5,0.2,0.5,0.5V73c0,0.6,0.4,1,1,1H32c0.6,0,1-0.4,1-1
		c0,0,0,0,0,0v-7.2c0-0.6-0.3-1.3-0.8-1.7C30,62.2,27.8,60.3,25.5,58.3z M24.7,59.4C24.7,59.4,24.7,59.4,24.7,59.4L24.7,59.4z
		 M30.6,72.6h-1.5c-0.6,0-1-0.4-1-1v-3.3c0-0.6-0.5-1.1-1.1-1.1h-4.1c-0.6,0-1.1,0.5-1.1,1.1v3.3c0,0.6-0.4,1-1,1h-1.3
		c-0.6,0-1-0.4-1-1c0,0,0,0,0,0v-4.9c0-0.6,0.3-1.3,0.7-1.7l5.2-5.1c0.2-0.2,0.4-0.4,0.4-0.4l6.2,5.5c0.5,0.4,0.7,1,0.7,1.7v4.9
		C31.6,72.2,31.2,72.6,30.6,72.6L30.6,72.6z"/>
	<g id="g1592" transform="matrix(0.26458334,0,0,0.26458334,4.2333332,25.664583)">
		<g id="g6" transform="matrix(0.03674969,0,0,0.03674969,9.19e-7,-1.3853197e-5)">
			<g id="g4">
				<path id="path2" class="st3" d="M3061.3,8398.2c0-52.5-42.7-95.2-95.2-95.2H2686c-234.7,0-424.8,189.7-425.9,424.1
					c-0.4,122.1-86.9,230.5-207.9,245.7c-145.1,18.1-269.1-95.2-269.1-236.6v-213.2c217.7-44.2,381.7-236.6,381.7-467.5v-241.9
					c0-34.4-27.6-62-62-62h-118.3v-299c0-46.9-34-88.4-80.5-93c-53.3-5.3-98.3,36.7-98.3,89.2v302.7H1570v-299
					c0-46.9-34-88.4-80.9-93c-53.3-4.9-98.3,36.7-98.3,89.2v302.7h-118.7c-34.4,0-62,27.6-62,62v241.9
					c0,230.9,164,423.3,381.7,467.5v202.2c0,232.4,180.3,430.9,412.7,439.6c244.2,9.1,446-186.7,446-429v-3.4
					c0-131.9,107-238.5,238.5-238.5h276.7C3018.6,8493.4,3061.3,8450.7,3061.3,8398.2z"/>
			</g>
		</g>
		<g id="g8">
		</g>
		<g id="g10">
		</g>
		<g id="g12">
		</g>
		<g id="g14">
		</g>
		<g id="g16">
		</g>
		<g id="g18">
		</g>
		<g id="g20">
		</g>
		<g id="g22">
		</g>
		<g id="g24">
		</g>
		<g id="g26">
		</g>
		<g id="g28">
		</g>
		<g id="g30">
		</g>
		<g id="g32">
		</g>
		<g id="g34">
		</g>
		<g id="g36">
		</g>
	</g>
	<rect id="rect42661" x="45" y="46" class="st0" width="5" height="40"/>
	<rect id="rect43768" x="0" y="690" class="st11" width="50" height="30"/>
	<text transform="matrix(1 0 0 1 10.0273 709.2216)" class="st3 st5 st6">v1.0.0</text>
</g>
</svg>
